<?xml version="1.0" encoding="utf-8"?>
<!-- Generator: Adobe Illustrator 25.0.0, SVG Export Plug-In . SVG Version: 6.00 Build 0)  -->
<svg version="1.1" id="Capa_1" xmlns="http://www.w3.org/2000/svg" xmlns:xlink="http://www.w3.org/1999/xlink" x="0px" y="0px"
	 viewBox="0 0 900 300" style="enable-background:new 0 0 900 300;" xml:space="preserve">
<style type="text/css">
	.st0{fill:#E35027;}
	.st1{fill:#EC662B;}
	.st2{fill:#ECEDEE;}
	.st3{fill:#FFFFFF;}
	.st4{opacity:0.51;fill:none;stroke:#6E6E6D;stroke-width:4;stroke-miterlimit:10;}
	.st5{fill:none;}
	.st6{opacity:0.51;fill:#6E6E6D;stroke:#6E6E6D;}
	.st7{font-family:'KozGoPr6N-Regular-90ms-RKSJ-H';}
	.st8{font-size:39.256px;}
	.st9{opacity:0.51;fill:none;stroke:#000000;stroke-miterlimit:10;}
	.st10{opacity:0.51;}
	.st11{fill:#6F6E6D;}
</style>
<path class="st0" d="M735.3,272l-12.9-145h142.1l-12.9,145l-58.3,16.4"/>
<path class="st1" d="M793.6,275.8l47-12.9l11-124.2h-58"/>
<path class="st2" d="M793.6,192.6H770l-1.6-18.3h25.2v-17.6h-44.8l4.7,53.9h40V192.6z M793.6,238.9l-20.2-5.4l-1.3-14.2h-17.6
	l2.2,28.1l36.9,10.1V238.9z"/>
<path class="st3" d="M793.6,210.6h21.7l-2.2,23l-19.5,5.4v18.6l36.2-10.1l5-54.8h-41.3V210.6z M793.6,156.7v17.6h42.9l1.6-17.6
	H793.6z"/>
<path class="st4" d="M550.4,230.9c0,10.8-8.8,19.6-19.6,19.6H450c-10.8,0-19.6-8.8-19.6-19.6"/>
<path class="st4" d="M548.6,150.4c13.3,1.7,15.3,10.6,15.3,19.3v76c0,10.8-8.8,19.6-19.6,19.6H450c-10.8,0-19.6-9-19.6-19.6v-76
	c0-10.8,8.8-19.6,19.6-19.6h94.3c6,0,9.2,1.5,5.8,0.9"/>
<line class="st4" x1="550.4" y1="230.9" x2="550.1" y2="151"/>
<rect x="446.3" y="175.2" class="st5" width="83.4" height="54.7"/>
<text transform="matrix(1 0 0 1 446.2772 206.5696)" class="st6 st7 st8">F4</text>
<line class="st9" x1="544.5" y1="244.9" x2="544.5" y2="244.9"/>
<line class="st4" x1="550.4" y1="230.9" x2="563.9" y2="248.5"/>
<line class="st4" x1="540" y1="248.8" x2="553.5" y2="262.9"/>
<g>
	<g class="st10">
		<path class="st11" d="M39.9,222.9v-33.6h9.3c11.8,0,17.8,5.5,17.8,16.4c0,5.2-1.6,9.4-4.9,12.5s-7.7,4.7-13.2,4.7H39.9z
			 M43.9,192.9v26.5h5c4.4,0,7.8-1.2,10.3-3.5s3.7-5.7,3.7-10c0-8.6-4.6-12.9-13.7-12.9H43.9z"/>
		<path class="st11" d="M87.2,223.5c-4.8,0-8.6-1.6-11.4-4.7s-4.3-7.2-4.3-12.3c0-5.4,1.5-9.7,4.4-12.9s6.9-4.8,11.9-4.8
			c4.6,0,8.4,1.6,11.2,4.7s4.3,7.2,4.3,12.3c0,5.5-1.5,9.8-4.4,13S92,223.5,87.2,223.5z M87.4,192.3c-3.5,0-6.4,1.3-8.6,3.8
			s-3.3,5.9-3.3,10s1.1,7.5,3.2,10s4.9,3.8,8.4,3.8c3.7,0,6.6-1.2,8.7-3.6s3.2-5.8,3.2-10.1c0-4.4-1-7.9-3.1-10.3
			S91.1,192.3,87.4,192.3z"/>
		<path class="st11" d="M149.6,189.3l-9.5,33.6h-4.6l-6.9-24.6c-0.3-1-0.5-2.2-0.5-3.4H128c-0.1,1.2-0.3,2.3-0.6,3.4l-7,24.6h-4.6
			l-9.8-33.6h4.3l7.1,25.8c0.3,1.1,0.5,2.2,0.6,3.4h0.1c0.1-0.8,0.3-2,0.7-3.4l7.4-25.8h3.8l7.1,26c0.2,0.9,0.4,1.9,0.6,3.1h0.1
			c0.1-0.8,0.3-1.9,0.6-3.2l6.9-25.9H149.6z"/>
		<path class="st11" d="M181.7,222.9h-4.8l-17.3-26.8c-0.4-0.7-0.8-1.4-1.1-2.1h-0.1c0.1,0.7,0.2,2.3,0.2,4.6v24.3h-3.9v-33.6h5.1
			l16.8,26.4c0.7,1.1,1.2,1.8,1.4,2.2h0.1c-0.2-1-0.2-2.6-0.2-4.9v-23.7h3.9V222.9z"/>
		<path class="st11" d="M208,222.9h-17.4v-33.6h3.9v30H208V222.9z"/>
		<path class="st11" d="M226.7,223.5c-4.8,0-8.6-1.6-11.4-4.7s-4.3-7.2-4.3-12.3c0-5.4,1.5-9.7,4.4-12.9s6.9-4.8,11.9-4.8
			c4.6,0,8.4,1.6,11.2,4.7s4.3,7.2,4.3,12.3c0,5.5-1.5,9.8-4.4,13S231.6,223.5,226.7,223.5z M227,192.3c-3.5,0-6.4,1.3-8.6,3.8
			s-3.3,5.9-3.3,10s1.1,7.5,3.2,10s4.9,3.8,8.4,3.8c3.7,0,6.6-1.2,8.7-3.6s3.2-5.8,3.2-10.1c0-4.4-1-7.9-3.1-10.3
			S230.6,192.3,227,192.3z"/>
		<path class="st11" d="M275.3,222.9H271l-3.6-9.4h-14.2l-3.4,9.4h-4.4l12.9-33.6h4.1L275.3,222.9z M266.1,210l-5.3-14.3
			c-0.2-0.5-0.3-1.2-0.5-2.2h-0.1c-0.2,1-0.3,1.7-0.5,2.2l-5.2,14.3H266.1z"/>
		<path class="st11" d="M280.3,222.9v-33.6h9.3c11.8,0,17.8,5.5,17.8,16.4c0,5.2-1.6,9.4-4.9,12.5s-7.7,4.7-13.2,4.7H280.3z
			 M284.2,192.9v26.5h5c4.4,0,7.8-1.2,10.3-3.5s3.7-5.7,3.7-10c0-8.6-4.6-12.9-13.7-12.9H284.2z"/>
		<path class="st11" d="M349,190.3l-19.7,29.1h19.2v3.6h-25.1v-1.1l19.5-28.9h-18v-3.6h24V190.3z"/>
		<path class="st11" d="M358.4,222.9h-3.9v-33.6h3.9V222.9z"/>
		<path class="st11" d="M371.2,210.2v12.7h-3.9v-33.6h9.2c3.6,0,6.4,0.9,8.4,2.6s3,4.2,3,7.4s-1.1,5.8-3.3,7.8s-5.2,3-8.9,3H371.2z
			 M371.2,192.9v13.8h4.1c2.7,0,4.8-0.6,6.2-1.9s2.1-3,2.1-5.3c0-4.4-2.6-6.7-7.9-6.7H371.2z"/>
	</g>
</g>
<path class="st4" d="M550.8,98.6c0,10.8-8.8,19.6-19.6,19.6h-80.8c-10.8,0-19.6-8.8-19.6-19.6"/>
<path class="st4" d="M549,18.1c13.3,1.7,15.3,10.6,15.3,19.3v76c0,10.8-8.8,19.6-19.6,19.6h-94.3c-10.8,0-19.6-9-19.6-19.6v-76
	c0-10.8,8.8-19.6,19.6-19.6h94.3c6,0,9.2,1.5,5.8,0.9"/>
<line class="st4" x1="550.8" y1="98.6" x2="550.5" y2="18.7"/>
<rect x="446.6" y="42.9" class="st5" width="83.4" height="54.7"/>
<text transform="matrix(1 0 0 1 446.6316 74.2833)" class="st6 st7 st8">ESC</text>
<line class="st9" x1="544.9" y1="112.6" x2="544.9" y2="112.6"/>
<line class="st4" x1="550.8" y1="98.6" x2="564.3" y2="116.2"/>
<line class="st4" x1="540.4" y1="116.5" x2="553.9" y2="130.6"/>
<g>
	<g class="st10">
		<path class="st11" d="M79.7,90.6H75l-5.6-9.4c-0.5-0.9-1-1.6-1.5-2.2s-1-1.1-1.5-1.5s-1.1-0.7-1.6-0.9s-1.2-0.3-2-0.3h-3.2v14.3
			h-3.9V57h10c1.5,0,2.8,0.2,4.1,0.6s2.3,0.9,3.2,1.7s1.6,1.7,2.1,2.8s0.8,2.4,0.8,3.9c0,1.2-0.2,2.2-0.5,3.2s-0.9,1.8-1.5,2.6
			s-1.4,1.4-2.3,2s-1.9,1-3.1,1.3v0.1c0.6,0.2,1.1,0.5,1.5,0.9s0.8,0.7,1.2,1.1s0.7,0.9,1.1,1.5s0.8,1.2,1.2,1.9L79.7,90.6z
			 M59.5,60.6v12.2h5.3c1,0,1.9-0.1,2.7-0.4s1.6-0.7,2.2-1.3s1.1-1.2,1.4-2s0.5-1.7,0.5-2.7c0-1.8-0.6-3.2-1.7-4.2s-2.8-1.5-5.1-1.5
			H59.5z"/>
		<path class="st11" d="M102.1,90.6H84.3V57h17.1v3.6H88.2v11.2h12.1v3.5H88.2v11.8h13.9V90.6z"/>
		<path class="st11" d="M107,89.3v-4.6c0.5,0.5,1.2,0.9,1.9,1.3s1.5,0.7,2.3,0.9s1.6,0.5,2.5,0.6s1.6,0.2,2.3,0.2
			c2.4,0,4.2-0.4,5.4-1.3s1.8-2.2,1.8-3.9c0-0.9-0.2-1.7-0.6-2.4s-0.9-1.3-1.7-1.8s-1.5-1.1-2.5-1.6s-2-1-3.1-1.6
			c-1.2-0.6-2.3-1.2-3.3-1.8s-1.9-1.3-2.6-2s-1.3-1.6-1.8-2.5s-0.6-2-0.6-3.3c0-1.5,0.3-2.9,1-4s1.6-2.1,2.6-2.8s2.3-1.3,3.7-1.6
			s2.8-0.5,4.3-0.5c3.3,0,5.7,0.4,7.2,1.2v4.4c-2-1.4-4.5-2.1-7.6-2.1c-0.9,0-1.7,0.1-2.6,0.3s-1.6,0.5-2.3,0.9s-1.2,0.9-1.6,1.6
			s-0.6,1.4-0.6,2.3c0,0.9,0.2,1.6,0.5,2.2s0.8,1.2,1.4,1.7s1.4,1,2.3,1.5s1.9,1,3.1,1.6c1.2,0.6,2.3,1.2,3.4,1.9s2,1.4,2.8,2.2
			s1.5,1.7,1.9,2.6s0.7,2.1,0.7,3.3c0,1.7-0.3,3.1-1,4.2s-1.5,2.1-2.6,2.8s-2.4,1.2-3.8,1.6s-3,0.5-4.5,0.5c-0.5,0-1.2,0-2-0.1
			s-1.6-0.2-2.4-0.4s-1.6-0.4-2.3-0.6S107.4,89.6,107,89.3z"/>
		<path class="st11" d="M151.9,90.6h-17.8V57h17.1v3.6H138v11.2h12.1v3.5H138v11.8h13.9V90.6z"/>
		<path class="st11" d="M178.2,60.6h-9.7v30h-3.9v-30h-9.7V57h23.3V60.6z"/>
		<path class="st11" d="M196.7,90.6V57h9.6c2.9,0,5.2,0.7,6.9,2.1s2.6,3.3,2.6,5.6c0,1.9-0.5,3.6-1.5,5s-2.5,2.4-4.3,3v0.1
			c2.3,0.3,4.1,1.1,5.4,2.6s2,3.3,2,5.6c0,2.9-1,5.2-3.1,7s-4.7,2.7-7.8,2.7H196.7z M200.6,60.6v10.9h4c2.2,0,3.9-0.5,5.1-1.6
			s1.9-2.5,1.9-4.4c0-3.3-2.1-4.9-6.4-4.9H200.6z M200.6,75v12.1h5.3c2.3,0,4.1-0.5,5.4-1.6s1.9-2.6,1.9-4.5c0-4-2.7-6-8.1-6H200.6z
			"/>
		<path class="st11" d="M237.7,91.2c-4.8,0-8.6-1.6-11.4-4.7s-4.3-7.2-4.3-12.3c0-5.4,1.5-9.7,4.4-12.9s6.9-4.8,11.9-4.8
			c4.6,0,8.4,1.6,11.2,4.7s4.3,7.2,4.3,12.3c0,5.5-1.5,9.8-4.4,13S242.6,91.2,237.7,91.2z M238,60c-3.5,0-6.4,1.3-8.6,3.8
			s-3.3,5.9-3.3,10s1.1,7.5,3.2,10s4.9,3.8,8.4,3.8c3.7,0,6.6-1.2,8.7-3.6s3.2-5.8,3.2-10.1c0-4.4-1-7.9-3.1-10.3S241.6,60,238,60z"
			/>
		<path class="st11" d="M286.4,90.6H282l-3.6-9.4h-14.2l-3.4,9.4h-4.4L269.4,57h4.1L286.4,90.6z M277.2,77.7l-5.3-14.3
			c-0.2-0.5-0.3-1.2-0.5-2.2h-0.1c-0.2,1-0.3,1.7-0.5,2.2l-5.2,14.3H277.2z"/>
		<path class="st11" d="M315.4,90.6h-4.7l-5.6-9.4c-0.5-0.9-1-1.6-1.5-2.2s-1-1.1-1.5-1.5s-1.1-0.7-1.6-0.9s-1.2-0.3-2-0.3h-3.2
			v14.3h-3.9V57h10c1.5,0,2.8,0.2,4.1,0.6s2.3,0.9,3.2,1.7s1.6,1.7,2.1,2.8s0.8,2.4,0.8,3.9c0,1.2-0.2,2.2-0.5,3.2s-0.9,1.8-1.5,2.6
			s-1.4,1.4-2.3,2s-1.9,1-3.1,1.3v0.1c0.6,0.2,1.1,0.5,1.5,0.9s0.8,0.7,1.2,1.1s0.7,0.9,1.1,1.5s0.8,1.2,1.2,1.9L315.4,90.6z
			 M295.3,60.6v12.2h5.3c1,0,1.9-0.1,2.7-0.4s1.6-0.7,2.2-1.3s1.1-1.2,1.4-2s0.5-1.7,0.5-2.7c0-1.8-0.6-3.2-1.7-4.2
			s-2.8-1.5-5.1-1.5H295.3z"/>
		<path class="st11" d="M320,90.6V57h9.3c11.8,0,17.8,5.5,17.8,16.4c0,5.2-1.6,9.4-4.9,12.5s-7.7,4.7-13.2,4.7H320z M324,60.6v26.5
			h5c4.4,0,7.8-1.2,10.3-3.5s3.7-5.7,3.7-10c0-8.6-4.6-12.9-13.7-12.9H324z"/>
		<path class="st11" d="M352.1,89.3v-4.6c0.5,0.5,1.2,0.9,1.9,1.3s1.5,0.7,2.3,0.9s1.6,0.5,2.5,0.6s1.6,0.2,2.3,0.2
			c2.4,0,4.2-0.4,5.4-1.3s1.8-2.2,1.8-3.9c0-0.9-0.2-1.7-0.6-2.4s-0.9-1.3-1.7-1.8s-1.5-1.1-2.5-1.6s-2-1-3.1-1.6
			c-1.2-0.6-2.3-1.2-3.3-1.8s-1.9-1.3-2.6-2s-1.3-1.6-1.8-2.5s-0.6-2-0.6-3.3c0-1.5,0.3-2.9,1-4s1.6-2.1,2.6-2.8s2.3-1.3,3.7-1.6
			s2.8-0.5,4.3-0.5c3.3,0,5.7,0.4,7.2,1.2v4.4c-2-1.4-4.5-2.1-7.6-2.1c-0.9,0-1.7,0.1-2.6,0.3s-1.6,0.5-2.3,0.9s-1.2,0.9-1.6,1.6
			s-0.6,1.4-0.6,2.3c0,0.9,0.2,1.6,0.5,2.2s0.8,1.2,1.4,1.7s1.4,1,2.3,1.5s1.9,1,3.1,1.6c1.2,0.6,2.3,1.2,3.4,1.9s2,1.4,2.8,2.2
			s1.5,1.7,1.9,2.6s0.7,2.1,0.7,3.3c0,1.7-0.3,3.1-1,4.2s-1.5,2.1-2.6,2.8s-2.4,1.2-3.8,1.6s-3,0.5-4.5,0.5c-0.5,0-1.2,0-2-0.1
			s-1.6-0.2-2.4-0.4s-1.6-0.4-2.3-0.6S352.6,89.6,352.1,89.3z"/>
	</g>
</g>
</svg>
