<?xml version="1.0" encoding="utf-8"?>
<!-- Generator: Adobe Illustrator 25.0.0, SVG Export Plug-In . SVG Version: 6.00 Build 0)  -->
<svg version="1.1" id="Layer_1" xmlns="http://www.w3.org/2000/svg" xmlns:xlink="http://www.w3.org/1999/xlink" x="0px" y="0px"
	 viewBox="0 0 24 24" style="enable-background:new 0 0 24 24;" xml:space="preserve">
<style type="text/css">
	.st0{fill:#FFFFFF;}
	.st1{opacity:0.75;}
</style>
<rect class="st0" width="24" height="24"/>
<g id="code" class="st1">
	<path id="left-bracket" d="M4,12v-1h1c1,0,1,0,1-1V7.6c0-0.5,0-0.9,0.1-1.1C6.1,6.2,6.2,6,6.3,5.8c0.2-0.3,0.5-0.5,0.8-0.6
		C7.5,5.1,8,5,9,5h1v1H9.2C8.8,6,8.5,6.2,8.3,6.4C8.1,6.6,8,6.9,8,7.5v1.9c0,0.7,0,1.2-0.2,1.5c-0.2,0.3-0.6,0.5-1.1,0.7
		c0.5,0.2,0.9,0.4,1.1,0.7C8,12.5,8,12.9,8,13.7v1.9c0,0.6,0.1,0.8,0.3,1.1C8.5,16.8,8.8,17,9.2,17l0.8,0l0,0v1H9
		c-1,0-1.5-0.1-1.8-0.2c-0.3-0.1-0.6-0.3-0.8-0.6c-0.1-0.2-0.2-0.4-0.3-0.6C6,16.3,6,15.9,6,15.4V13c0-1,0-1-1-1H4z"/>
	<g id="right-bracket" transform="matrix(-1,0,0,1,24,0)">
		<path id="left-bracket_1_" d="M20,12v-1h-1c-1,0-1,0-1-1V7.6c0-0.5,0-0.9-0.1-1.1c-0.1-0.3-0.1-0.5-0.3-0.6
			c-0.2-0.3-0.5-0.5-0.8-0.6C16.5,5.1,16,5,15,5h-1v1h0.8c0.5,0,0.8,0.2,0.9,0.4C15.9,6.6,16,6.9,16,7.5v1.9c0,0.7,0,1.2,0.2,1.5
			c0.2,0.3,0.6,0.5,1.1,0.7c-0.5,0.2-0.9,0.4-1.1,0.7C16,12.5,16,12.9,16,13.7v1.9c0,0.6-0.1,0.8-0.3,1.1c-0.2,0.2-0.5,0.4-0.9,0.4
			L14,17l0,0v1h1c1,0,1.5-0.1,1.8-0.2c0.3-0.1,0.6-0.3,0.8-0.6c0.1-0.2,0.2-0.4,0.3-0.6c0-0.3,0.1-0.6,0.1-1.1V13c0-1,0-1,1-1H20z"
			/>
	</g>
</g>
</svg>
